HIERARCHY
ROOT Pelvis
{
	OFFSET -0.217368 -24.078917 2.858379
	CHANNELS 6 Xposition Yposition Zposition Zrotation Yrotation Xrotation 
	JOINT Left_hip
	{
		OFFSET 5.858135 -8.228005 -1.766408
		CHANNELS 3 Zrotation Yrotation Xrotation
		JOINT Left_knee
		{
			OFFSET 4.345143 -38.646942 0.803700
			CHANNELS 3 Zrotation Yrotation Xrotation
			JOINT Left_ankle
			{
				OFFSET -1.479033 -42.687447 -3.742800
				CHANNELS 3 Zrotation Yrotation Xrotation
				JOINT Left_foot
				{
					OFFSET 4.105436 -6.028605 12.204244
					CHANNELS 3 Zrotation Yrotation Xrotation
					End Site
					{
						OFFSET 0.000000 0.000000 0.000000
					}
				}
			}
		}
	}
	JOINT Right_hip
	{
		OFFSET -6.030973 -9.051328 -1.354253
		CHANNELS 3 Zrotation Yrotation Xrotation
		JOINT Right_knee
		{
			OFFSET -4.325663 -38.368790 -0.484304
			CHANNELS 3 Zrotation Yrotation Xrotation
			JOINT Right_ankle
			{
				OFFSET 1.905555 -42.004566 -3.456167
				CHANNELS 3 Zrotation Yrotation Xrotation
				JOINT Right_foot
				{
					OFFSET -3.483987 -6.210554 13.032330
					CHANNELS 3 Zrotation Yrotation Xrotation
					End Site
					{
						OFFSET 0.000000 0.000000 0.000000
					}
				}
			}
		}
	}
	JOINT Spine1
	{
		OFFSET 0.443945 12.440353 -3.838522
		CHANNELS 3 Zrotation Yrotation Xrotation
		JOINT Spine2
		{
			OFFSET 0.448844 13.795640 2.682033
			CHANNELS 3 Zrotation Yrotation Xrotation
			JOINT Spine3
			{
				OFFSET -0.226460 5.603239 0.285504
				CHANNELS 3 Zrotation Yrotation Xrotation
				JOINT Neck
				{
					OFFSET -1.339018 21.163553 -3.346758
					CHANNELS 3 Zrotation Yrotation Xrotation
					JOINT Head
					{
						OFFSET 1.011321 8.893734 5.040987
						CHANNELS 3 Zrotation Yrotation Xrotation
						End Site
						{
							OFFSET 0.000000 0.000000 0.000000
						}
					}
				}
				JOINT Left_collar
				{
					OFFSET 7.170247 11.399971 -1.889817
					CHANNELS 3 Zrotation Yrotation Xrotation
					JOINT Left_shoulder
					{
						OFFSET 12.292140 4.520507 -1.904600
						CHANNELS 3 Zrotation Yrotation Xrotation
						JOINT Left_elbow
						{
							OFFSET 25.533188 -1.564902 -2.294648
							CHANNELS 3 Zrotation Yrotation Xrotation
							JOINT Left_wrist
							{
								OFFSET 26.570929 1.269810 -0.737473
								CHANNELS 3 Zrotation Yrotation Xrotation
								JOINT Left_palm
								{
									OFFSET 8.669054 -1.063602 -1.559429
									CHANNELS 3 Zrotation Yrotation Xrotation
									End Site
									{
										OFFSET 0.000000 0.000000 0.000000
									}
								}
							}
						}
					}
				}
				JOINT Right_collar
				{
					OFFSET -8.295364 11.247234 -2.370738
					CHANNELS 3 Zrotation Yrotation Xrotation
					JOINT Right_shoulder
					{
						OFFSET -11.322830 4.685326 -0.847207
						CHANNELS 3 Zrotation Yrotation Xrotation
						JOINT Right_elbow
						{
							OFFSET -26.012751 -1.436928 -3.126872
							CHANNELS 3 Zrotation Yrotation Xrotation
							JOINT Right_wrist
							{
								OFFSET -26.910841 0.679372 -0.602677
								CHANNELS 3 Zrotation Yrotation Xrotation
								JOINT Right_palm
								{
									OFFSET -8.875370 -0.865157 -1.010708
									CHANNELS 3 Zrotation Yrotation Xrotation
									End Site
									{
										OFFSET 0.000000 0.000000 0.000000
									}
								}
							}
						}
					}
				}
			}
		}
	}
}
MOTION
Frames: 13
Frame Time: 0.016667
-0.217368 35.895477 2.858379 -0.481232 3.028373 -29.495756 13.799485 1.345145 -48.674757 -10.794187 9.527107 93.028529 6.540100 11.009366 -12.600133 0.000000 0.000000 0.000000 -12.174864 -0.048017 -47.936050 14.717549 -13.821574 93.133753 -4.955672 -9.070646 -12.084671 0.000000 0.000000 0.000000 -2.577356 -0.697625 37.988429 1.891644 0.240859 -25.759305 1.357318 3.193579 28.938218 1.012399 0.408285 -13.962027 0.000000 0.000000 0.000000 -19.388582 -4.637710 0.461650 -57.256305 -2.815113 -5.100527 -1.537565 -23.590194 1.179624 0.000000 0.000000 0.000000 0.000000 0.000000 0.000000 19.357411 4.926819 0.706075 60.396259 5.663578 -2.555991 -3.751861 23.567112 0.029828 0.000000 0.000000 0.000000 0.000000 0.000000 0.000000 
-0.232624 35.574501 2.796400 -1.235140 3.662285 -30.245900 14.754180 1.818503 -49.890236 -10.035883 8.935199 95.696149 5.074202 7.570652 -10.808420 0.000000 0.000000 0.000000 -11.793551 0.101907 -50.359597 14.489150 -14.085527 95.469144 -3.606226 -7.365156 -5.271807 0.000000 0.000000 0.000000 -3.560956 -0.359205 38.837459 4.076153 -0.289626 -25.196525 0.953149 2.531677 28.213757 -0.669656 1.449702 -14.292334 0.000000 0.000000 0.000000 -20.817982 -4.106216 0.077788 -57.944602 -2.016108 -5.558229 -1.531942 -24.914793 1.247215 0.000000 0.000000 0.000000 0.000000 0.000000 0.000000 18.912178 6.204382 1.421828 61.039193 4.740043 -3.066105 -4.891957 24.457668 -0.195409 0.000000 0.000000 0.000000 0.000000 0.000000 0.000000 
-0.217443 35.444756 2.744138 -1.279393 3.568450 -30.281037 15.562372 2.236800 -50.881364 -10.853878 10.086829 95.843818 4.943457 7.762426 -9.255080 0.000000 0.000000 0.000000 -11.742207 0.123045 -50.836805 14.859823 -14.390984 94.693846 -3.749960 -8.667462 -2.596861 0.000000 0.000000 0.000000 -3.486464 -0.384918 38.730903 5.285149 -0.567622 -25.239085 0.713594 2.950888 28.664988 -1.255691 1.798063 -14.200846 0.000000 0.000000 0.000000 -24.060638 -4.407440 0.031675 -55.228082 -3.692955 -4.496587 -0.633013 -23.639248 0.996666 0.000000 0.000000 0.000000 0.000000 0.000000 0.000000 21.084659 7.347728 1.983640 58.330098 4.163385 -3.203470 -6.038720 23.625331 -0.400514 0.000000 0.000000 0.000000 0.000000 0.000000 0.000000 
-0.233520 35.570847 2.727329 -1.668749 4.151146 -31.205091 15.152618 2.049167 -50.914177 -9.506267 8.423441 97.195444 3.518016 5.425030 -5.904471 0.000000 0.000000 0.000000 -10.978208 0.463062 -50.470827 14.486845 -13.724948 93.994264 -3.291030 -8.344952 0.153605 0.000000 0.000000 0.000000 -3.270195 -0.475079 39.616312 6.311382 -0.704244 -26.477717 0.383502 2.614501 30.176802 -2.816001 2.717957 -13.585038 0.000000 0.000000 0.000000 -25.312394 -3.803684 -0.419849 -55.480835 -3.447878 -4.632305 0.406885 -23.980047 0.795166 0.000000 0.000000 0.000000 0.000000 0.000000 0.000000 20.854122 7.903358 2.304734 59.679633 3.221722 -3.759539 -8.614423 25.377210 -0.968162 0.000000 0.000000 0.000000 0.000000 0.000000 0.000000 
-0.231244 35.717133 2.711036 -1.626687 4.546740 -30.983721 14.736343 1.876489 -51.347038 -9.464972 8.361889 97.174333 4.229074 7.093466 -5.985147 0.000000 0.000000 0.000000 -11.134581 0.395691 -51.116067 14.781441 -14.125337 94.042606 -4.043774 -10.429125 1.092721 0.000000 0.000000 0.000000 -3.556230 -0.370037 39.673702 6.332970 -0.686016 -26.757441 0.547328 2.094243 30.018244 -3.022058 2.862685 -14.194032 0.000000 0.000000 0.000000 -25.389788 -3.884715 -0.376339 -54.833543 -3.126739 -4.718853 -1.691283 -24.656576 1.267963 0.000000 0.000000 0.000000 0.000000 0.000000 0.000000 21.158092 8.022738 2.366467 59.126171 2.798083 -3.931659 -7.873476 25.375223 -0.816498 0.000000 0.000000 0.000000 0.000000 0.000000 0.000000 
-0.233996 35.667984 2.704426 -1.886226 5.146651 -31.049885 14.512903 1.780945 -51.548781 -8.810112 7.384322 96.782126 3.787381 6.047947 -5.962258 0.000000 0.000000 0.000000 -10.892036 0.509204 -51.881979 14.868658 -14.247541 94.071326 -4.141317 -11.069044 2.853674 0.000000 0.000000 0.000000 -3.707695 -0.316478 39.936347 7.385348 -0.856102 -27.412738 0.251466 1.647467 30.020382 -3.775233 3.328639 -14.755326 0.000000 0.000000 0.000000 -26.008043 -3.725799 -0.520212 -54.876533 -2.132590 -5.174448 -2.209281 -25.367465 1.420527 0.000000 0.000000 0.000000 0.000000 0.000000 0.000000 20.772739 8.867460 2.852870 59.529471 1.481972 -4.621882 -7.066835 25.761766 -0.664341 0.000000 0.000000 0.000000 0.000000 0.000000 0.000000 
-0.233159 35.648323 2.704170 -2.054440 5.656345 -31.221020 13.948602 1.522477 -51.710359 -7.973132 6.199069 96.705650 3.662256 5.832336 -5.734700 0.000000 0.000000 0.000000 -10.602940 0.646785 -52.465795 14.659263 -14.048460 94.389077 -4.168498 -11.433822 4.261441 0.000000 0.000000 0.000000 -3.708268 -0.319532 40.281829 7.450680 -0.858114 -27.541741 0.457308 0.921583 30.370715 -4.432129 3.728499 -15.382482 0.000000 0.000000 0.000000 -26.206825 -3.559614 -0.638167 -54.589417 -1.766159 -5.309285 -2.958818 -26.114190 1.635147 0.000000 0.000000 0.000000 0.000000 0.000000 0.000000 20.490381 8.907895 2.878443 59.546810 1.383429 -4.672797 -6.965619 25.976326 -0.650184 0.000000 0.000000 0.000000 0.000000 0.000000 0.000000 
-0.236767 35.535721 2.703116 -2.112597 6.256911 -31.348222 13.353746 1.232987 -51.396347 -7.089655 4.953443 96.657414 3.534219 5.078560 -6.906166 0.000000 0.000000 0.000000 -9.785926 1.028685 -52.603955 14.162641 -13.487641 94.811971 -4.244514 -11.707743 4.787696 0.000000 0.000000 0.000000 -3.675248 -0.333440 40.434006 7.538407 -0.860275 -27.718289 0.349865 0.471154 30.367715 -4.680774 3.876953 -15.594081 0.000000 0.000000 0.000000 -26.203409 -3.195405 -0.862869 -55.092577 -1.464973 -5.501308 -2.464048 -26.856704 1.567557 0.000000 0.000000 0.000000 0.000000 0.000000 0.000000 20.147538 8.890340 2.871779 59.708060 1.413026 -4.672494 -7.105095 26.496684 -0.696899 0.000000 0.000000 0.000000 0.000000 0.000000 0.000000 
-0.246156 35.517166 2.700791 -1.887313 6.685951 -31.407380 12.981421 1.052674 -51.155789 -6.905248 4.685952 96.549812 3.712103 5.594141 -6.697952 0.000000 0.000000 0.000000 -9.447133 1.198998 -53.194011 13.965846 -13.285864 95.079150 -4.376639 -12.208421 5.917052 0.000000 0.000000 0.000000 -3.913496 -0.245686 40.728935 7.430178 -0.796432 -28.165597 0.269492 0.118209 30.765449 -4.645625 3.859484 -15.856405 0.000000 0.000000 0.000000 -25.739662 -2.903834 -1.002787 -55.229893 -1.335231 -5.575984 -2.672085 -27.189848 1.637447 0.000000 0.000000 0.000000 0.000000 0.000000 0.000000 19.482610 8.856790 2.859496 59.794346 1.601806 -4.585178 -7.000756 26.657245 -0.679713 0.000000 0.000000 0.000000 0.000000 0.000000 0.000000 
-0.247624 35.530014 2.703863 -1.659339 6.867472 -32.182801 13.197630 1.122038 -50.088558 -6.958247 4.690332 95.666079 3.525433 5.276892 -6.340495 0.000000 0.000000 0.000000 -9.028130 1.377346 -52.427921 13.647054 -12.937340 95.436969 -4.469583 -12.433987 6.081450 0.000000 0.000000 0.000000 -3.940930 -0.242109 41.682600 7.040808 -0.718094 -28.144632 0.303173 0.153313 30.718416 -4.461906 3.756074 -16.107277 0.000000 0.000000 0.000000 -25.084976 -2.623184 -1.115957 -56.221140 -0.810020 -5.934388 -2.685934 -27.989678 1.691405 0.000000 0.000000 0.000000 0.000000 0.000000 0.000000 18.747997 8.426895 2.632814 60.951637 1.265773 -4.861210 -7.219461 27.931251 -0.771258 0.000000 0.000000 0.000000 0.000000 0.000000 0.000000 
-0.244643 35.572540 2.709189 -1.397282 7.155884 -32.349398 13.425391 1.206086 -49.476223 -7.062722 4.781189 95.002807 3.556194 5.276454 -6.535645 0.000000 0.000000 0.000000 -9.176143 1.288930 -51.599398 13.652579 -12.804851 94.813720 -4.503759 -12.334664 5.138172 0.000000 0.000000 0.000000 -4.161697 -0.158917 42.264479 6.886412 -0.638385 -28.696730 0.263008 -0.052667 30.772904 -4.503399 3.783282 -16.345826 0.000000 0.000000 0.000000 -25.055294 -2.405069 -1.244789 -56.207753 0.001255 -6.310524 -3.460367 -27.813622 1.869193 0.000000 0.000000 0.000000 0.000000 0.000000 0.000000 18.611225 8.497645 2.673162 61.049326 1.088320 -4.962038 -6.663318 28.163969 -0.651234 0.000000 0.000000 0.000000 0.000000 0.000000 0.000000 
-0.240247 35.630638 2.718213 -1.324558 7.450824 -32.111352 13.590563 1.289664 -49.773438 -7.248318 5.031420 94.971335 3.332942 4.827745 -6.296946 0.000000 0.000000 0.000000 -9.144967 1.307741 -51.791104 14.050594 -13.272074 94.529119 -4.658639 -12.678313 5.204187 0.000000 0.000000 0.000000 -4.371187 -0.076623 42.484743 7.222226 -0.623981 -29.610976 0.227992 -0.199264 31.011431 -4.802795 3.965665 -17.355441 0.000000 0.000000 0.000000 -25.102956 -1.878262 -1.566703 -56.375303 0.983636 -6.790351 -4.282779 -27.532298 2.048019 0.000000 0.000000 0.000000 0.000000 0.000000 0.000000 18.246594 8.439618 2.646958 61.373837 0.411152 -5.345137 -6.240587 28.887381 -0.572469 0.000000 0.000000 0.000000 0.000000 0.000000 0.000000 
-0.237087 35.700180 2.720297 -1.273876 7.874545 -31.849792 13.515685 1.263395 -50.003308 -7.105885 4.839956 95.002231 3.148398 4.332967 -6.412798 0.000000 0.000000 0.000000 -9.380661 1.197294 -51.668997 14.320591 -13.555325 94.205809 -4.753789 -12.773202 4.579022 0.000000 0.000000 0.000000 -4.525655 -0.015050 42.426495 7.317555 -0.633097 -29.713498 0.163572 -0.326812 30.781681 -4.883007 4.009984 -17.248607 0.000000 0.000000 0.000000 -24.703754 -1.512817 -1.746134 -56.575657 1.590265 -7.102032 -5.180337 -27.086599 2.226543 0.000000 0.000000 0.000000 0.000000 0.000000 0.000000 17.826529 8.215010 2.533268 61.744390 -0.092522 -5.646979 -5.668915 29.330179 -0.445967 0.000000 0.000000 0.000000 0.000000 0.000000 0.000000 
